<svg aria-hidden="true" style="position:absolute;width:0;height:0" xmlns="http://www.w3.org/2000/svg" overflow="hidden"><defs><symbol id="icon-envelope" viewBox="0 0 43 32"><path d="M38.667 0H4C1.794 0 0 1.675 0 3.734v22.404c0 2.059 1.794 3.734 4 3.734h34.667c2.206 0 4-1.675 4-3.734V3.734c0-2.059-1.794-3.734-4-3.734zm0 2.489c.181 0 .353.035.511.096L21.334 17.022 3.49 2.585c.158-.061.33-.096.511-.096h34.667zm0 24.894H4c-.736 0-1.333-.558-1.333-1.245V5.216L20.46 19.611c.251.203.563.304.874.304s.622-.101.874-.304L40.001 5.216v20.922c0 .687-.598 1.245-1.333 1.245z"/></symbol><symbol id="icon-smartphone" viewBox="0 0 21 32"><path d="M18.133 0H3.2C1.435 0 0 1.34 0 2.987v25.889c0 1.647 1.435 2.987 3.2 2.987h14.933c1.765 0 3.2-1.34 3.2-2.987V2.987c0-1.647-1.435-2.987-3.2-2.987zM3.2 1.991h14.933c.589 0 1.067.446 1.067.996v20.91H2.133V2.987c0-.549.478-.996 1.067-.996zm14.933 27.881H3.2c-.589 0-1.067-.446-1.067-.996v-2.987H19.2v2.987c0 .55-.478.996-1.067.996z"/><path d="M5.021 27.177c.417.389.417 1.02 0 1.409s-1.092.389-1.508 0c-.417-.389-.417-1.02 0-1.409s1.092-.389 1.508 0z"/></symbol><symbol id="icon-antenna1" viewBox="0 0 32 32"><path fill="var(--color2, #212121)" d="M30.773 22.098l-8.443-8.505.937-4.615c.242.094.499.144.758.146h.006a2.159 2.159 0 1 0-2.008-1.435l-4.96.605L8.972.161a.534.534 0 0 0-.377-.16.532.532 0 0 0-.373.155L6.709 1.66a.534.534 0 0 0 0 .754l.814.826a14.943 14.943 0 0 0 2.519 17.663.513.513 0 0 0 .146.098c-.034.18-.051.364-.052.547v6.187h-6.4a2.67 2.67 0 0 0-2.667 2.667v1.067c0 .295.239.533.533.533h24.533a.533.533 0 0 0 .533-.533v-1.067a2.67 2.67 0 0 0-2.667-2.667h-6.4v-2.742a15.09 15.09 0 0 0 3.049.32 14.854 14.854 0 0 0 7.04-1.783l.818.823a.534.534 0 0 0 .377.16.532.532 0 0 0 .373-.155l1.513-1.504a.534.534 0 0 0 0-.754zM23.28 6.233a1.066 1.066 0 1 1 .752 1.822h-.003a1.067 1.067 0 0 1-.747-1.823h-.002zm-1.256 3.505l-.598 2.946-1.175-1.182 1.774-1.763zm-.605-.902l-1.92 1.909-1.485-1.493 3.405-.415zM24.004 28.8a1.6 1.6 0 0 1 1.6 1.6v.533H2.137V30.4a1.6 1.6 0 0 1 1.6-1.6h20.267zm-7.467-2.133v1.067h-5.333v-1.067h5.333zM11.204 25.6v-4.053c0-1.294 1.196-2.347 2.667-2.347s2.667 1.053 2.667 2.347V25.6h-5.333zm6.4-1.696v-2.357c0-1.882-1.675-3.413-3.733-3.413a3.8 3.8 0 0 0-3.281 1.786A13.87 13.87 0 0 1 8.311 4.033l18.602 18.708a13.818 13.818 0 0 1-9.309 1.163zm11.289-.684L7.836 2.039l.755-.752 7.935 7.98c.004 0 .006.007.01.01l13.115 13.191-.757.752z"/><path fill="var(--color3, #2196f3)" d="M13.876 20.267h-.005a1.6 1.6 0 1 0-.004 3.2h.005a1.6 1.6 0 1 0 .004-3.2zm.373 1.978a.534.534 0 1 1-.379-.911.532.532 0 0 1 .373.911h.005z"/></symbol><symbol id="icon-astronaut1" viewBox="0 0 32 32"><path fill="var(--color3, #2196f3)" d="M31.974 4.524a.534.534 0 0 0-.43-.363l-1.91-.278-.855-1.731c-.179-.365-.777-.365-.956 0l-.855 1.731-1.91.278a.535.535 0 0 0-.296.91l1.383 1.348-.326 1.903c-.034.2.048.402.212.522a.53.53 0 0 0 .562.04l1.709-.899 1.709.899a.536.536 0 0 0 .775-.563l-.326-1.903 1.383-1.348a.536.536 0 0 0 .135-.547zm-2.463 1.327a.534.534 0 0 0-.153.472l.191 1.114-1-.526a.533.533 0 0 0-.498 0l-1.001.526.191-1.114a.534.534 0 0 0-.153-.472l-.81-.789 1.119-.163a.532.532 0 0 0 .402-.292l.5-1.013.5 1.013a.535.535 0 0 0 .402.292l1.119.163-.809.789zM26.133 20.522h-1.067v1.067h1.067v-1.067zM26.133 22.656h-1.067v1.067h1.067v-1.067zM27.2 21.589h-1.067v1.067H27.2v-1.067zM25.067 21.589H24v1.067h1.067v-1.067zM22.4 26.389h-1.067v1.067H22.4v-1.067zM22.4 28.522h-1.067v1.067H22.4v-1.067zM23.467 27.456H22.4v1.067h1.067v-1.067zM21.333 27.456h-1.067v1.067h1.067v-1.067zM16 24.256h-1.067v1.067H16v-1.067zM16 26.389h-1.067v1.067H16v-1.067zM17.067 25.322H16v1.067h1.067v-1.067zM14.933 25.322h-1.067v1.067h1.067v-1.067zM5.866 6.122H4.799v1.067h1.067V6.122zM5.866 8.255H4.799v1.067h1.067V8.255z"/><path fill="var(--color3, #2196f3)" d="M6.933 7.189H5.866v1.067h1.067V7.189zM4.8 7.189H3.733v1.067H4.8V7.189z"/><path fill="var(--color2, #212121)" d="M24.715 14.159a1.775 1.775 0 0 0-1.188-.705 1.778 1.778 0 0 0-1.34.352l-1.252.96-1.898 1.417-1.358-.541c2.421-1.086 4.114-3.508 4.114-6.32 0-3.823-3.123-6.933-6.961-6.933s-6.961 3.11-6.961 6.933a6.86 6.86 0 0 0 1.12 3.758l-2.764-.024h-.005c-.009 0-.015.004-.023.005a.515.515 0 0 0-.155.031l-.038.013c-.006.003-.013.003-.019.006l-3.233 1.596-.001.001-1.893.911a.397.397 0 0 0-.063.035 1.779 1.779 0 0 0-.598 2.295c.22.429.595.745 1.056.889a1.776 1.776 0 0 0 1.378-.128l1.388-.738 2.264-1.169 1.357-.008L2.2 22.211l-.002.001-1.339 1.333c-.316.315-.49.732-.49 1.178s.174.863.49 1.179c.325.323.752.485 1.179.485s.854-.162 1.18-.485l1.314-1.309 1.741-1.3.901.897-1.762 1.754-.002.001-1.339 1.333c-.316.315-.49.732-.49 1.178s.174.863.49 1.179c.325.323.753.485 1.18.485s.855-.162 1.18-.485l3.482-3.467.001-.002 1.01-1-.004-.004c.006-.006.015-.009.022-.015l5.166-5.658 3.471.494a.52.52 0 0 0 .262-.033c.018-.006.033-.015.05-.023.019-.01.039-.015.058-.027l3.213-2.133c.012-.008.018-.021.029-.029.013-.01.029-.014.041-.026l1.271-1.191c.662-.62.753-1.635.212-2.362zM2.13 17.77a.714.714 0 0 1-.558.052.717.717 0 0 1-.213-1.26l1.314-.632.449 1.312-.992.527zm3.498-1.828l-1.548.8-.439-1.283 2.027-1.001-.04 1.484zm15.099-6.62a5.79 5.79 0 0 1-.599 2.559l-4.181-1.899a1.863 1.863 0 0 0-.788-1.388l1.464-4.86c2.378.756 4.105 2.974 4.105 5.588zm-11.789 0c0-3.235 2.644-5.867 5.894-5.867.253 0 .5.021.745.052l-1.432 4.754c-.019-.001-.037-.006-.057-.006-1.033 0-1.873.837-1.873 1.867s.84 1.867 1.873 1.867c.694 0 1.294-.383 1.618-.945l3.862 1.755a5.894 5.894 0 0 1-4.737 2.39c-3.25 0-5.894-2.632-5.894-5.867zm5.956.8c0 .441-.362.8-.806.8s-.806-.359-.806-.8c0-.441.362-.8.806-.8s.806.359.806.8zM2.465 25.146a.608.608 0 0 1-.854.001.592.592 0 0 1 0-.844l.962-.958.851.848-.959.955zm3.214 3.734a.608.608 0 0 1-.855.001.592.592 0 0 1 0-.844l.963-.959.852.848-.96.955zm3.481-3.469l-.002.001-1.765 1.76-.852-.848 1.763-1.755.002-.001c.04-.04.065-.088.09-.135.007-.014.02-.026.026-.04.017-.041.019-.085.026-.129.003-.025.014-.047.014-.073 0-.036-.013-.07-.02-.106-.006-.032-.006-.065-.019-.095a.55.55 0 0 0-.091-.138c-.01-.012-.014-.027-.025-.038h-.001l-.001-.002-1.607-1.6c-.017-.017-.039-.024-.058-.038a.507.507 0 0 0-.087-.058.515.515 0 0 0-.093-.033.507.507 0 0 0-.103-.02.5.5 0 0 0-.095.005.53.53 0 0 0-.104.02.477.477 0 0 0-.094.045c-.02.011-.042.015-.061.029L4.23 23.486l-.901-.897 2.399-2.386 4.361 4.289-.928.919zm6.819-7.017c-.015-.002-.03.004-.045.003a.556.556 0 0 0-.3.075.492.492 0 0 0-.083.061c-.013.011-.028.017-.04.029l-4.698 5.146-4.328-4.257 2.833-2.818a.534.534 0 0 0-.379-.911v-.001l-2.219.013.028-1.607 3.104.027a6.947 6.947 0 0 0 4.981 2.101c.437 0 .864-.045 1.279-.123.04.032.079.065.13.085l2.41.96.152.758.178.885-3.003-.427zm4.041.178l-.313-1.558 1.446-1.08.947 1.257-2.08 1.381zm3.754-2.831l-.838.785-.931-1.236.831-.637a.735.735 0 0 1 .543-.143.718.718 0 0 1 .48.284.713.713 0 0 1-.085.947z"/><path fill="var(--color2, #212121)" d="M13.602 18.544l-2.143-2.133a.534.534 0 0 0-.753 0l-2.142 2.133a.537.537 0 0 0 0 .756l2.142 2.133a.536.536 0 0 0 .753 0l2.143-2.133a.535.535 0 0 0 0-.756zm-2.519 1.759l-1.387-1.381 1.387-1.381 1.387 1.381-1.387 1.381zM17.164 5.071l-.258 1.036c.071.018 1.738.452 1.738 2.149h1.067c0-2.017-1.666-2.965-2.547-3.185zM19.711 9.322h-1.067v1.067h1.067V9.322z"/></symbol><symbol id="icon-clock1" viewBox="0 0 32 32"><path fill="var(--color2, #212121)" d="M31.297 15.301C31.295 6.849 24.442-.002 15.989 0S.686 6.855.688 15.308a15.304 15.304 0 0 0 10.649 14.576.662.662 0 0 0 .529-.065.637.637 0 0 0 .283-.356l3.865-12.25a1.912 1.912 0 1 0-.84-3.635l-5.106-5.107a.637.637 0 0 0-.902.902l5.103 5.109a1.876 1.876 0 0 0 .536 2.309l-3.683 11.673C3.844 25.783.118 17.71 2.799 10.432S13.553-.572 20.831 2.109s11.004 10.754 8.323 18.032a14.042 14.042 0 0 1-7.462 7.973l-.398-1.874a.638.638 0 0 0-1.048-.344l-3.837 3.426a.637.637 0 0 0 .231 1.084l4.899 1.563a.638.638 0 0 0 .819-.74l-.391-1.839a15.255 15.255 0 0 0 9.329-14.089zm-15.305-.637a.638.638 0 1 1 0 1.277.638.638 0 0 1 0-1.277zm2.101 14.864l2.184-1.948.603 2.84-2.787-.892z"/><path fill="var(--color3, #2196f3)" d="M15.354 3.185V4.46a.638.638 0 1 0 1.276 0V3.185a.638.638 0 0 0-1.276 0zM3.876 14.664a.638.638 0 0 0 0 1.276h1.275a.638.638 0 1 0 0-1.276H3.876zM28.108 15.939a.638.638 0 1 0 0-1.276h-1.275a.638.638 0 0 0 0 1.276h1.275z"/></symbol><symbol id="icon-diagram1" viewBox="0 0 32 32"><path fill="var(--color3, #2196f3)" d="M14.926 14.965h1.066v4.798h-1.066v-4.797zM19.19 17.097h1.066v2.665H19.19v-2.665zM10.661 18.696h1.066v1.066h-1.066v-1.066zM7.463 18.163h1.066v1.599H7.463v-1.599z"/><path fill="var(--color2, #212121)" d="M1.599 28.291h25.587a1.6 1.6 0 0 0 1.599-1.599V24.56a1.6 1.6 0 0 0-1.599-1.599h-.533V9.668L29.681 6.8a1.608 1.608 0 1 0-.746-.763L26.654 8.2V6.97a1.6 1.6 0 0 0-1.599-1.599H3.733A1.6 1.6 0 0 0 2.134 6.97v15.992h-.533a1.6 1.6 0 0 0-1.599 1.599v2.132a1.6 1.6 0 0 0 1.599 1.599zM30.384 4.837a.533.533 0 1 1 0 1.067.533.533 0 0 1 0-1.067zM3.198 6.969c0-.294.239-.533.533-.533h21.322c.294 0 .533.239.533.533v2.239l-1.066 1.013V8.035a.533.533 0 0 0-.533-.533H4.797a.533.533 0 0 0-.533.533v13.326c0 .294.239.533.533.533h19.19a.533.533 0 0 0 .533-.533v-9.674l1.066-1.01v12.284H3.198V6.969zm4.798 6.93a1.598 1.598 0 1 0 1.107 2.749l1.853.93a.532.532 0 0 0 .636-.123l3.939-4.431 3.872 2.901a.533.533 0 0 0 .686-.039l3.365-3.188v8.131H5.33V8.569h18.124v2.66l-3.771 3.572-3.904-2.927a.533.533 0 0 0-.718.072l-3.993 4.493-1.493-.746c.011-.064.018-.129.02-.193a1.6 1.6 0 0 0-1.599-1.599zm.533 1.599a.533.533 0 1 1-1.067 0 .533.533 0 0 1 1.067 0zm3.198 8.529h5.331v.533a.533.533 0 0 1-.533.533h-4.264a.533.533 0 0 1-.533-.533v-.533zm-10.661.533c0-.294.239-.533.533-.533h9.062v.533a1.6 1.6 0 0 0 1.599 1.599h4.264a1.6 1.6 0 0 0 1.599-1.599v-.533h9.062c.294 0 .533.239.533.533v2.132a.533.533 0 0 1-.533.533H1.598a.533.533 0 0 1-.533-.533V24.56z"/></symbol><symbol id="icon-instagram1" viewBox="0 0 32 32"><path d="M31.969 9.408c-.075-1.7-.35-2.869-.744-3.882a7.806 7.806 0 0 0-1.851-2.838A7.867 7.867 0 0 0 26.542.844C25.523.45 24.36.175 22.66.1 20.947.019 20.403 0 16.059 0s-4.888.019-6.595.094c-1.7.075-2.869.35-3.882.744a7.803 7.803 0 0 0-2.838 1.85A7.867 7.867 0 0 0 .9 5.52C.506 6.539.231 7.702.156 9.402c-.081 1.713-.1 2.257-.1 6.601s.019 4.888.094 6.595c.075 1.7.35 2.869.744 3.882a7.895 7.895 0 0 0 1.85 2.838 7.867 7.867 0 0 0 2.832 1.844c1.019.394 2.182.669 3.882.744 1.706.075 2.25.094 6.595.094s4.888-.019 6.595-.094c1.7-.075 2.869-.35 3.882-.744a8.184 8.184 0 0 0 4.682-4.682c.394-1.019.669-2.182.744-3.882.075-1.707.094-2.251.094-6.595s-.006-4.888-.081-6.595zm-2.882 13.065c-.069 1.563-.331 2.407-.55 2.969a5.31 5.31 0 0 1-3.038 3.038c-.563.219-1.413.481-2.969.55-1.688.075-2.194.094-6.464.094s-4.782-.019-6.464-.094c-1.563-.069-2.407-.331-2.969-.55a4.926 4.926 0 0 1-1.838-1.194 4.974 4.974 0 0 1-1.194-1.838c-.219-.563-.481-1.413-.55-2.969-.075-1.688-.094-2.194-.094-6.464s.019-4.782.094-6.464c.069-1.563.331-2.407.55-2.969a4.868 4.868 0 0 1 1.2-1.838A4.974 4.974 0 0 1 6.639 3.55c.563-.219 1.413-.481 2.969-.55 1.688-.075 2.194-.094 6.464-.094 4.276 0 4.782.019 6.464.094 1.563.069 2.407.331 2.969.55a4.914 4.914 0 0 1 1.838 1.194 4.974 4.974 0 0 1 1.194 1.838c.219.563.481 1.413.55 2.969.075 1.688.094 2.194.094 6.464s-.019 4.77-.094 6.458z"/><path d="M16.059 7.783c-4.538 0-8.22 3.682-8.22 8.22s3.682 8.22 8.22 8.22c4.539 0 8.22-3.682 8.22-8.22s-3.682-8.22-8.22-8.22zm0 13.552a5.333 5.333 0 0 1 0-10.664 5.333 5.333 0 0 1 0 10.664zM26.524 7.458a1.919 1.919 0 1 1-3.838 0 1.919 1.919 0 0 1 3.838 0z"/></symbol><symbol id="icon-instagram2" viewBox="0 0 32 32"><path fill="var(--color5, #fff)" d="M31.969 9.408c-.075-1.7-.35-2.869-.744-3.882a7.806 7.806 0 0 0-1.851-2.838A7.867 7.867 0 0 0 26.542.844C25.523.45 24.36.175 22.66.1 20.947.019 20.403 0 16.059 0s-4.888.019-6.595.094c-1.7.075-2.869.35-3.882.744a7.803 7.803 0 0 0-2.838 1.85A7.867 7.867 0 0 0 .9 5.52C.506 6.539.231 7.702.156 9.402c-.081 1.713-.1 2.257-.1 6.601s.019 4.888.094 6.595c.075 1.7.35 2.869.744 3.882a7.895 7.895 0 0 0 1.85 2.838 7.867 7.867 0 0 0 2.832 1.844c1.019.394 2.182.669 3.882.744 1.706.075 2.25.094 6.595.094s4.888-.019 6.595-.094c1.7-.075 2.869-.35 3.882-.744a8.184 8.184 0 0 0 4.682-4.682c.394-1.019.669-2.182.744-3.882.075-1.707.094-2.251.094-6.595s-.006-4.888-.081-6.595zm-2.882 13.065c-.069 1.563-.331 2.407-.55 2.969a5.31 5.31 0 0 1-3.038 3.038c-.563.219-1.413.481-2.969.55-1.688.075-2.194.094-6.464.094s-4.782-.019-6.464-.094c-1.563-.069-2.407-.331-2.969-.55a4.926 4.926 0 0 1-1.838-1.194 4.974 4.974 0 0 1-1.194-1.838c-.219-.563-.481-1.413-.55-2.969-.075-1.688-.094-2.194-.094-6.464s.019-4.782.094-6.464c.069-1.563.331-2.407.55-2.969a4.868 4.868 0 0 1 1.2-1.838A4.974 4.974 0 0 1 6.639 3.55c.563-.219 1.413-.481 2.969-.55 1.688-.075 2.194-.094 6.464-.094 4.276 0 4.782.019 6.464.094 1.563.069 2.407.331 2.969.55a4.914 4.914 0 0 1 1.838 1.194 4.974 4.974 0 0 1 1.194 1.838c.219.563.481 1.413.55 2.969.075 1.688.094 2.194.094 6.464s-.019 4.77-.094 6.458z"/><path fill="var(--color5, #fff)" d="M16.059 7.783c-4.538 0-8.22 3.682-8.22 8.22s3.682 8.22 8.22 8.22c4.539 0 8.22-3.682 8.22-8.22s-3.682-8.22-8.22-8.22zm0 13.552a5.333 5.333 0 0 1 0-10.664 5.333 5.333 0 0 1 0 10.664zM26.524 7.458a1.919 1.919 0 1 1-3.838 0 1.919 1.919 0 0 1 3.838 0z"/></symbol><symbol id="icon-twitter1" viewBox="0 0 32 32"><path d="M32 6.078c-1.19.522-2.458.868-3.78 1.036a6.523 6.523 0 0 0 2.886-3.626 13.11 13.11 0 0 1-4.16 1.588A6.574 6.574 0 0 0 22.154 3c-3.632 0-6.556 2.948-6.556 6.562 0 .52.044 1.02.152 1.496-5.454-.266-10.28-2.88-13.522-6.862a6.605 6.605 0 0 0-.898 3.316 6.57 6.57 0 0 0 2.914 5.452 6.479 6.479 0 0 1-2.964-.808v.072c0 3.188 2.274 5.836 5.256 6.446a6.548 6.548 0 0 1-1.72.216 5.8 5.8 0 0 1-1.242-.112c.85 2.598 3.262 4.508 6.13 4.57a13.182 13.182 0 0 1-8.134 2.798c-.538 0-1.054-.024-1.57-.09A18.469 18.469 0 0 0 10.064 29c12.072 0 18.672-10 18.672-18.668 0-.29-.01-.57-.024-.848A13.087 13.087 0 0 0 32 6.078z"/></symbol><symbol id="icon-twitter2" viewBox="0 0 32 32"><path fill="var(--color5, #fff)" d="M32 6.078c-1.19.522-2.458.868-3.78 1.036a6.523 6.523 0 0 0 2.886-3.626 13.11 13.11 0 0 1-4.16 1.588A6.574 6.574 0 0 0 22.154 3c-3.632 0-6.556 2.948-6.556 6.562 0 .52.044 1.02.152 1.496-5.454-.266-10.28-2.88-13.522-6.862a6.605 6.605 0 0 0-.898 3.316 6.57 6.57 0 0 0 2.914 5.452 6.479 6.479 0 0 1-2.964-.808v.072c0 3.188 2.274 5.836 5.256 6.446a6.548 6.548 0 0 1-1.72.216 5.8 5.8 0 0 1-1.242-.112c.85 2.598 3.262 4.508 6.13 4.57a13.182 13.182 0 0 1-8.134 2.798c-.538 0-1.054-.024-1.57-.09A18.469 18.469 0 0 0 10.064 29c12.072 0 18.672-10 18.672-18.668 0-.29-.01-.57-.024-.848A13.087 13.087 0 0 0 32 6.078z"/></symbol><symbol id="icon-facebook1" viewBox="0 0 32 32"><path d="M21.329 5.313h2.921V.225C23.746.156 22.013 0 19.994 0c-4.212 0-7.097 2.649-7.097 7.519V12H8.249v5.688h4.648V32h5.699V17.689h4.46l.708-5.688h-5.169V8.082c.001-1.644.444-2.769 2.735-2.769z"/></symbol><symbol id="icon-facebook2" viewBox="0 0 32 32"><path fill="var(--color5, #fff)" d="M21.329 5.313h2.921V.225C23.746.156 22.013 0 19.994 0c-4.212 0-7.097 2.649-7.097 7.519V12H8.249v5.688h4.648V32h5.699V17.689h4.46l.708-5.688h-5.169V8.082c.001-1.644.444-2.769 2.735-2.769z"/></symbol><symbol id="icon-linkedin1" viewBox="0 0 32 32"><path d="M31.992 32v-.001H32V20.263c0-5.741-1.236-10.164-7.948-10.164-3.227 0-5.392 1.771-6.276 3.449h-.093v-2.913h-6.364v21.364h6.627V21.42c0-2.785.528-5.479 3.977-5.479 3.399 0 3.449 3.179 3.449 5.657v10.401h6.62zM.528 10.636h6.635V32H.528V10.636zM3.843 0C1.722 0 0 1.721 0 3.843s1.721 3.879 3.843 3.879c2.121 0 3.843-1.757 3.843-3.879A3.846 3.846 0 0 0 3.843 0z"/></symbol><symbol id="icon-linkedin2" viewBox="0 0 32 32"><path fill="var(--color5, #fff)" d="M31.992 32v-.001H32V20.263c0-5.741-1.236-10.164-7.948-10.164-3.227 0-5.392 1.771-6.276 3.449h-.093v-2.913h-6.364v21.364h6.627V21.42c0-2.785.528-5.479 3.977-5.479 3.399 0 3.449 3.179 3.449 5.657v10.401h6.62zM.528 10.636h6.635V32H.528V10.636zM3.843 0C1.722 0 0 1.721 0 3.843s1.721 3.879 3.843 3.879c2.121 0 3.843-1.757 3.843-3.879A3.846 3.846 0 0 0 3.843 0z"/></symbol><symbol id="icon-logo1" viewBox="0 0 29 32"><path d="M3.094-1.13l5.007 4.74h13.967v13.223l5.007 4.74V-1.13H3.094z"/><path d="M-1.017 3.411v22.054h23.296v-8.766L8.249 3.417l-9.266-.005zm18.858 18.828H2.669V7.406h1.072v13.828h14.1v1.004zM5.692 29.555l.56-1.154h.468l-.816 1.539v.897h-.425v-.897l-.818-1.539h.47l.56 1.154zm2.405.715h-.944l-.197.567h-.44l.92-2.436h.38l.922 2.436h-.442l-.199-.567zm-.825-.342h.706l-.353-1.01-.353 1.01zm2.493.251c0-.113.031-.216.092-.309.061-.095.182-.207.363-.336a1.527 1.527 0 0 1-.199-.305.6.6 0 0 1-.055-.243c0-.191.058-.341.174-.452a.649.649 0 0 1 .468-.167c.177 0 .322.052.435.157a.502.502 0 0 1 .171.386.542.542 0 0 1-.077.281.903.903 0 0 1-.253.254l-.166.12.47.555a.973.973 0 0 0 .102-.447h.353c0 .3-.07.546-.211.738l.358.423h-.472l-.137-.162c-.174.13-.381.196-.622.196s-.434-.064-.579-.191a.638.638 0 0 1-.216-.5zm.806.367a.626.626 0 0 0 .385-.137l-.532-.627-.052.037c-.134.101-.201.217-.201.348 0 .113.036.204.109.274s.17.105.291.105zm-.224-1.569c0 .094.057.211.172.353l.186-.127.052-.042a.301.301 0 0 0 .104-.236.211.211 0 0 0-.072-.162.253.253 0 0 0-.182-.069c-.079 0-.142.027-.189.08s-.07.121-.07.202zm4.425 1.067c-.025.26-.12.463-.288.609-.167.145-.39.217-.667.217a.966.966 0 0 1-.514-.137c-.147-.093-.261-.224-.341-.393s-.122-.366-.125-.59v-.227c0-.23.041-.432.122-.607s.198-.31.35-.405a.98.98 0 0 1 .529-.142c.269 0 .485.073.649.219s.259.352.286.619h-.422c-.02-.175-.071-.301-.154-.378-.081-.078-.201-.117-.36-.117a.495.495 0 0 0-.425.202c-.098.134-.148.331-.151.59v.216c0 .263.047.464.141.602a.472.472 0 0 0 .415.207c.166 0 .291-.037.375-.112s.137-.199.159-.373h.422zm2.323-.361c0 .239-.041.448-.124.629a.935.935 0 0 1-.355.415.973.973 0 0 1-.529.144.986.986 0 0 1-.529-.144.966.966 0 0 1-.358-.413 1.446 1.446 0 0 1-.127-.617v-.137a1.5 1.5 0 0 1 .125-.629.958.958 0 0 1 .356-.417c.154-.097.33-.146.529-.146s.374.048.527.144a.927.927 0 0 1 .356.411c.084.178.126.386.127.624v.135zm-.423-.128c0-.27-.051-.477-.154-.621a.498.498 0 0 0-.433-.216.501.501 0 0 0-.43.216c-.103.143-.155.345-.157.607v.14c0 .268.052.475.156.621.105.146.25.219.435.219a.497.497 0 0 0 .432-.214c.102-.143.152-.351.152-.626v-.127z"/></symbol><symbol id="icon-logo2" viewBox="0 0 25 32"><path d="M10.447 1.806h.084c.156 0 .324.016.49.03.734.052 1.463.162 2.179.329V.403a12.974 12.974 0 0 0-2.249-.358 18.11 18.11 0 0 0-.909-.044h-.263c-1.523.006-3.04.201-4.515.582a18.3 18.3 0 0 0-4.79 1.948v17.475a19.484 19.484 0 0 1 4.566-1.779 19.948 19.948 0 0 1 3.833-.588h.051c.216-.011.433-.017.655-.019v-1.79a21.155 21.155 0 0 0-4.982.662 23.81 23.81 0 0 0-1.731.513l-.623.211V3.59l.266-.128a17.409 17.409 0 0 1 6.472-1.651.523.523 0 0 1 .056 0c.248-.013.497-.019.741-.019h.28c.129.003.258.006.388.014z"/><path d="M14.837 3.651a15.823 15.823 0 0 1-2.606-.211c-.277-.047-.55-.103-.814-.164v17.275a13.82 13.82 0 0 0 3.425.404 18.396 18.396 0 0 0 4.515-.581 18.362 18.362 0 0 0 4.792-1.948V1.262a19.58 19.58 0 0 1-4.564 1.781 19.395 19.395 0 0 1-4.747.609zm6.908.299l.623-.21v13.63l-.266.128a17.08 17.08 0 0 1-3.184 1.144c-1.331.344-2.7.522-4.074.527-.411 0-.819-.017-1.214-.052l-.427-.038V5.062l.497.033c.361.023.735.034 1.141.034a21.092 21.092 0 0 0 5.173-.663 26.802 26.802 0 0 0 1.731-.518zM1.684 25.977a.912.912 0 0 0-.693-.28 1.034 1.034 0 0 0-.4.075.91.91 0 0 0-.512.518 1.023 1.023 0 0 0-.072.387v2.335c-.006.165.026.328.092.479.055.12.135.226.233.313a.815.815 0 0 0 .321.166c.114.032.231.048.349.049a.972.972 0 0 0 .892-.61.951.951 0 0 0 .075-.372v-.261h-.61v.208a.528.528 0 0 1-.036.208.359.359 0 0 1-.089.131.365.365 0 0 1-.128.067.425.425 0 0 1-.128.022.314.314 0 0 1-.286-.125.548.548 0 0 1-.081-.313v-2.177a.738.738 0 0 1 .075-.349.31.31 0 0 1 .299-.141.33.33 0 0 1 .272.131c.068.09.104.2.101.313v.202h.604v-.238a1.093 1.093 0 0 0-.279-.737zM5.31 25.95a1.051 1.051 0 0 0-1.38 0 .961.961 0 0 0-.237.327 1.099 1.099 0 0 0-.089.452v2.239a1.08 1.08 0 0 0 .089.459c.055.12.136.227.237.313a.94.94 0 0 0 .322.197 1.028 1.028 0 0 0 .728 0c.121-.044.233-.111.33-.197a.948.948 0 0 0 .23-.313 1.08 1.08 0 0 0 .089-.459v-2.239a1.08 1.08 0 0 0-.089-.452 1.015 1.015 0 0 0-.23-.327zm-.285 3.019a.405.405 0 0 1-.121.324.445.445 0 0 1-.574 0 .397.397 0 0 1-.121-.324V26.73a.405.405 0 0 1 .121-.324.445.445 0 0 1 .574 0 .397.397 0 0 1 .121.324v2.239zM10.072 29.969V25.73h-.587l-.771 2.244h-.011l-.777-2.244h-.581v4.239h.606V27.39h.011l.593 1.823h.302l.598-1.823h.011v2.579h.606zM13.513 26.027a.84.84 0 0 0-.343-.232 1.363 1.363 0 0 0-.439-.066h-.9v4.239h.604v-1.656h.311c.188.009.376-.031.545-.116a.882.882 0 0 0 .332-.324 1.02 1.02 0 0 0 .139-.369c.024-.16.035-.321.033-.482a2.421 2.421 0 0 0-.059-.606.898.898 0 0 0-.223-.39zm-.312 1.293a.547.547 0 0 1-.056.221.346.346 0 0 1-.156.149.619.619 0 0 1-.285.053h-.275v-1.441h.311a.578.578 0 0 1 .272.053.349.349 0 0 1 .142.157.62.62 0 0 1 .053.236v.282c0 .099.006.2 0 .291h-.006zM16.374 25.73h-.495l-.934 4.239h.604l.177-.911h.823l.177.911h.604l-.957-4.239zm-.557 2.751l.297-1.537h.011l.296 1.537h-.604zM20.277 28.284h-.011l-.912-2.554h-.581v4.239h.604V27.42h.012l.923 2.549h.568V25.73h-.604v2.554zM23.968 25.73l-.486 1.685h-.012l-.486-1.685h-.64l.83 2.447v1.792h.604v-1.792l.83-2.447h-.64zM0 31.166h.291v.817h.198v-.817h.29v-.167H.001v.167zM2.447 30.999l-.381.984h.21l.081-.224h.392l.084.224h.215l-.391-.984h-.21zm-.031.594l.134-.365.134.365h-.268zM4.866 31.62h.227v.127a.382.382 0 0 1-.234.083.244.244 0 0 1-.209-.093.411.411 0 0 1-.073-.257c0-.219.095-.329.283-.329a.206.206 0 0 1 .222.157l.195-.038c-.042-.192-.181-.289-.417-.289a.495.495 0 0 0-.344.127.494.494 0 0 0-.141.379.532.532 0 0 0 .126.369.477.477 0 0 0 .374.144.59.59 0 0 0 .417-.157v-.388h-.427v.166zM7.337 30.999h-.199v.984h.69v-.167h-.49v-.817zM9.426 30.999h-.199v.984h.199v-.984zM11.469 31.656l-.403-.657h-.193v.984h.185v-.643l.395.643h.198v-.984h-.182v.657zM13.315 31.549h.49v-.167h-.49v-.216h.528v-.167h-.727v.984h.747v-.167h-.548v-.266zM17.792 31.387h-.388v-.388h-.198v.984h.198v-.43h.388v.43h.198v-.984h-.198v.388zM19.649 31.549h.492v-.167h-.492v-.216h.529v-.167h-.727v.984h.746v-.167h-.548v-.266zM22.168 31.55c.171-.027.258-.117.258-.274a.236.236 0 0 0-.096-.219.553.553 0 0 0-.288-.058h-.417v.984h.198v-.412h.039a.261.261 0 0 1 .123.022.21.21 0 0 1 .07.072l.215.313h.237l-.12-.192a.685.685 0 0 0-.218-.236zm-.199-.137h-.146v-.247h.156a.526.526 0 0 1 .201.023c.014.013.026.029.033.046a.133.133 0 0 1-.005.111.128.128 0 0 1-.037.043.547.547 0 0 1-.201.023zM24.068 31.549h.49v-.167h-.49v-.216h.529v-.167h-.729v.984h.747v-.167h-.548v-.266z"/></symbol><symbol id="icon-logo3" viewBox="0 0 31 32"><path d="M4.722 31.103a.088.088 0 0 1 .059.025l.153.161c-.119.13-.266.234-.431.305a1.532 1.532 0 0 1-.611.109 1.496 1.496 0 0 1-.574-.102 1.25 1.25 0 0 1-.712-.733 1.618 1.618 0 0 1-.098-.571c-.003-.195.033-.39.105-.573.067-.166.168-.317.297-.445.131-.126.287-.224.459-.29.189-.07.389-.104.591-.102.188-.004.375.027.549.093.152.063.291.15.412.257l-.128.171a.122.122 0 0 1-.033.031.084.084 0 0 1-.052.013.123.123 0 0 1-.056-.018l-.069-.046-.096-.058a.978.978 0 0 0-.302-.103 1.238 1.238 0 0 0-.228-.018 1.12 1.12 0 0 0-.425.077.96.96 0 0 0-.333.215.997.997 0 0 0-.216.343c-.054.145-.08.298-.078.452-.002.156.024.312.078.46.047.126.119.242.212.341a.863.863 0 0 0 .318.212c.125.049.259.074.394.073.078.001.156-.004.234-.015a.87.87 0 0 0 .354-.122c.054-.034.104-.072.151-.113a.115.115 0 0 1 .073-.029zM9.144 30.296c.002.194-.033.386-.103.567-.062.165-.161.315-.288.44s-.282.224-.452.289a1.711 1.711 0 0 1-1.164 0 1.281 1.281 0 0 1-.741-.735 1.61 1.61 0 0 1 0-1.136c.065-.166.164-.317.291-.447.128-.121.281-.216.45-.279.374-.139.79-.139 1.164 0 .17.066.324.165.452.29.126.127.224.276.289.44.071.183.106.376.103.571zm-.402 0a1.313 1.313 0 0 0-.073-.456.898.898 0 0 0-.528-.556 1.23 1.23 0 0 0-.846 0 .901.901 0 0 0-.531.556 1.465 1.465 0 0 0 0 .912.888.888 0 0 0 .531.554c.273.097.573.097.846 0a.884.884 0 0 0 .528-.554c.051-.147.076-.301.073-.456zM12.161 30.774l.04.102a3.46 3.46 0 0 1 .044-.102.933.933 0 0 1 .05-.1l.978-1.694c.019-.029.036-.047.056-.053a.217.217 0 0 1 .08-.009h.289v2.755h-.343v-2.026-.086a.753.753 0 0 1 0-.095l-.984 1.718c-.012.026-.033.047-.058.063s-.054.023-.084.023h-.056a.154.154 0 0 1-.141-.086l-1.013-1.729V31.668h-.331v-2.75h.289a.24.24 0 0 1 .08.009c.024.011.043.03.054.053l.999 1.696c.02.031.036.064.05.098zM15.842 30.638v1.032h-.383v-2.752h.854a1.67 1.67 0 0 1 .477.06.912.912 0 0 1 .337.171.699.699 0 0 1 .191.27.905.905 0 0 1 .065.352.84.84 0 0 1-.071.352.744.744 0 0 1-.207.275.936.936 0 0 1-.339.182 1.498 1.498 0 0 1-.461.064l-.463-.007zm0-.296h.463a.992.992 0 0 0 .297-.042.617.617 0 0 0 .214-.119.488.488 0 0 0 .13-.182.579.579 0 0 0 .046-.232.522.522 0 0 0-.172-.412.766.766 0 0 0-.515-.148h-.463v1.134zM20.987 31.673h-.302a.133.133 0 0 1-.084-.026.164.164 0 0 1-.05-.064l-.26-.666h-1.307l-.27.666a.145.145 0 0 1-.048.062.132.132 0 0 1-.086.027h-.302l1.148-2.756h.398l1.164 2.756zm-1.895-1.023h1.08l-.456-1.122a1.828 1.828 0 0 1-.086-.259l-.044.144c-.013.044-.029.084-.042.117l-.452 1.12zM22.641 28.931a.16.16 0 0 1 .057.049l1.675 2.077v-.097V28.918h.343v2.756h-.191a.173.173 0 0 1-.078-.016.2.2 0 0 1-.061-.051l-1.673-2.075a.753.753 0 0 1 0 .095v2.048h-.343v-2.756h.203a.163.163 0 0 1 .069.013zM27.537 30.577v1.094h-.383v-1.094l-1.059-1.66h.343a.126.126 0 0 1 .082.024.256.256 0 0 1 .052.062l.662 1.071a1.256 1.256 0 0 1 .117.245l.05-.119c.019-.043.04-.085.065-.126l.653-1.078a.274.274 0 0 1 .05-.058.116.116 0 0 1 .082-.027h.346l-1.06 1.667zM11.971 24.293c.167.02.335.036.505.051 2.583-1.101 4.768-2.902 6.282-5.18s2.29-4.929 2.231-7.624l-2.846-2.712c.579 2.869.308 5.836-.782 8.567s-2.956 5.12-5.389 6.898z"/><path d="M10.955 24.167l.076.015c2.6-1.772 4.583-4.247 5.691-7.104s1.292-5.965.526-8.922l-4.054-3.862c1.64 3.175 2.3 6.728 1.903 10.246s-1.833 6.857-4.143 9.628zM24.704 14.725c-.689 2.961-2.362 5.632-4.77 7.616a15.094 15.094 0 0 1-2.266 1.55c1.961-.549 3.764-1.52 5.269-2.838s2.672-2.947 3.412-4.763l-1.644-1.565z"/><path d="M24.059 14.289l-2.341-2.23c-.045 2.543-.804 5.028-2.197 7.197s-3.372 3.943-5.729 5.137h.012a14 14 0 0 0 1.572-.089c2.203-.857 4.148-2.219 5.664-3.967s2.553-3.825 3.021-6.047zM11.294 2.664L8.501 0C6.004.919 3.857 2.535 2.34 4.636S.008 9.225 0 11.775c.009 2.818 1.005 5.552 2.829 7.77s4.372 3.793 7.242 4.476c2.561-2.973 4.061-6.647 4.281-10.488s-.851-7.648-3.058-10.869zM30.512 13.878c-.01-3.343-1.409-6.546-3.89-8.91s-5.843-3.696-9.352-3.706a13.655 13.655 0 0 0-4.741.841l17.099 16.291c.585-1.44.885-2.971.884-4.515z"/></symbol><symbol id="icon-logo4" viewBox="0 0 52 32"><path d="M9.539 9.77h-.002c-1.723 0-3.119 1.361-3.119 3.04v.002c0 1.679 1.396 3.04 3.119 3.04h.002c1.723 0 3.119-1.361 3.119-3.04v-.002c0-1.679-1.397-3.04-3.119-3.04zM32.562 8.799c-.005-2.332-.957-4.567-2.649-6.215S25.928.006 23.536.001c-2.393.004-4.688.933-6.38 2.582S14.51 6.468 14.505 8.8v12.858s18.055-1.96 18.057-12.856V8.8zM.096 25.877c.004 1.622.667 3.177 1.845 4.325s2.772 1.794 4.437 1.799c1.665-.005 3.259-.651 4.436-1.798s1.84-2.701 1.845-4.323v-8.947S.096 18.298.096 25.878zm6.281 1.602c-.325 0-.643-.094-.914-.27s-.481-.426-.606-.719-.157-.615-.094-.926c.063-.311.22-.597.45-.821s.523-.377.842-.439c.319-.062.65-.03.95.091s.557.327.738.59a1.574 1.574 0 0 1 .154 1.506 1.59 1.59 0 0 1-.356.522 1.657 1.657 0 0 1-1.165.472v-.006zM19.2 26.485h-1.285v1.327h-.669v-3.248h2.115v.542h-1.446v.839H19.2v.54zm3.217-.223c0 .32-.057.6-.17.841a1.276 1.276 0 0 1-1.209.754c-.269 0-.509-.065-.721-.194s-.375-.314-.491-.553a1.907 1.907 0 0 1-.176-.83v-.161c0-.32.057-.601.172-.843a1.285 1.285 0 0 1 1.212-.756c.271 0 .511.065.721.196.211.129.374.316.489.56.116.242.174.523.174.841v.145zm-.678-.147c0-.341-.061-.599-.183-.776s-.296-.265-.522-.265a.596.596 0 0 0-.52.263c-.122.174-.184.43-.185.767v.158c0 .332.061.589.183.772s.297.274.526.274a.592.592 0 0 0 .518-.263c.12-.177.181-.434.183-.772v-.158zm2.849.845a.342.342 0 0 0-.134-.29c-.089-.068-.25-.14-.482-.214a3.465 3.465 0 0 1-.551-.223c-.369-.199-.553-.468-.553-.805 0-.175.049-.332.147-.469a.976.976 0 0 1 .426-.323c.186-.077.394-.116.625-.116.232 0 .439.042.62.127a.972.972 0 0 1 .422.355.926.926 0 0 1 .152.522h-.669a.434.434 0 0 0-.141-.346c-.094-.083-.225-.125-.395-.125-.164 0-.291.035-.382.105a.323.323 0 0 0-.136.272c0 .106.053.194.158.265.107.071.264.138.471.201.381.115.658.257.832.426s.261.381.261.634a.785.785 0 0 1-.319.663c-.213.159-.499.239-.859.239a1.67 1.67 0 0 1-.683-.136 1.1 1.1 0 0 1-.471-.377.969.969 0 0 1-.161-.553h.672c0 .358.214.538.642.538a.634.634 0 0 0 .373-.096.318.318 0 0 0 .134-.272zm3.571-1.854h-.995v2.706h-.669v-2.706h-.982v-.542h2.646v.542zm2.338 1.299h-1.285v.87h1.508v.538h-2.177v-3.248h2.173v.542h-1.504v.774h1.285v.524zm1.818.218h-.533v1.189h-.669v-3.248h1.207c.384 0 .68.085.888.257s.312.413.312.725a.992.992 0 0 1-.145.555.97.97 0 0 1-.435.352l.703 1.327v.031h-.718l-.609-1.189zm-.533-.542h.54c.168 0 .298-.042.39-.127a.463.463 0 0 0 .138-.355.486.486 0 0 0-.132-.361c-.086-.088-.219-.132-.399-.132h-.538v.975zm4.056.587v1.145h-.669v-3.248h1.267c.244 0 .458.045.642.134a.976.976 0 0 1 .428.381c.1.164.149.35.149.56 0 .318-.109.57-.328.754-.217.183-.518.274-.903.274h-.587zm0-.542h.598c.177 0 .312-.042.404-.125.094-.083.141-.202.141-.357 0-.159-.047-.288-.141-.386s-.223-.149-.388-.152h-.613v1.02zm4.234.279h-1.285v.87h1.508v.538h-2.177v-3.248h2.173v.542h-1.504v.774h1.285v.524zm3.105-1.299h-.995v2.706h-.669v-2.706h-.982v-.542h2.646v.542zm2.338 1.299H44.23v.87h1.508v.538h-2.177v-3.248h2.173v.542H44.23v.774h1.285v.524zm1.818.218H46.8v1.189h-.669v-3.248h1.207c.384 0 .68.085.888.257s.312.413.312.725a.992.992 0 0 1-.145.555.97.97 0 0 1-.435.352l.703 1.327v.031h-.718l-.609-1.189zm-.533-.542h.54c.168 0 .298-.042.39-.127a.463.463 0 0 0 .138-.355.486.486 0 0 0-.132-.361c-.086-.088-.219-.132-.399-.132h-.538v.975zm3.933.879a.342.342 0 0 0-.134-.29c-.089-.068-.25-.14-.482-.214a3.465 3.465 0 0 1-.551-.223c-.369-.199-.553-.468-.553-.805 0-.175.049-.332.147-.469a.976.976 0 0 1 .426-.323c.186-.077.394-.116.625-.116.232 0 .439.042.62.127a.972.972 0 0 1 .422.355.926.926 0 0 1 .152.522h-.669a.434.434 0 0 0-.141-.346c-.094-.083-.225-.125-.395-.125-.164 0-.291.035-.382.105a.323.323 0 0 0-.136.272c0 .106.053.194.158.265.107.071.264.138.471.201.381.115.658.257.832.426s.261.381.261.634a.785.785 0 0 1-.319.663c-.213.159-.499.239-.859.239a1.67 1.67 0 0 1-.683-.136 1.1 1.1 0 0 1-.471-.377.969.969 0 0 1-.161-.553h.671c0 .358.214.538.642.538a.634.634 0 0 0 .373-.096.318.318 0 0 0 .134-.272z"/></symbol><symbol id="icon-logo5" viewBox="0 0 40 32"><path d="M3.055 26.742c.156.194.24.438.236.688a1.092 1.092 0 0 1-.365.869 1.575 1.575 0 0 1-1.061.317H0v-4.361h1.827c.361-.024.718.078 1.012.29a.998.998 0 0 1 .354.816c.011.241-.065.477-.212.667a.997.997 0 0 1-.556.341c.247.045.471.177.63.373zm-2.187-.658h.781a.736.736 0 0 0 .496-.145.515.515 0 0 0 .167-.426.526.526 0 0 0-.165-.426.75.75 0 0 0-.511-.147H.868v1.144zm1.354 1.672a.54.54 0 0 0 .185-.443.56.56 0 0 0-.188-.448.803.803 0 0 0-.53-.158H.87v1.199h.83a.822.822 0 0 0 .524-.151zM6.79 28.617l-1.016-1.704h-.382v1.704h-.874v-4.361h1.655c.417-.029.83.104 1.152.371a1.394 1.394 0 0 1 .123 1.804 1.342 1.342 0 0 1-.789.443l1.082 1.743H6.79zm-1.399-2.299h.715c.497 0 .745-.22.745-.66a.641.641 0 0 0-.183-.49.771.771 0 0 0-.562-.177h-.724l.008 1.327zM11.568 27.739H9.826l-.308.878h-.917l1.6-4.312h.991l1.593 4.312h-.917l-.301-.878zm-.233-.66l-.637-1.841-.637 1.841h1.273zM17.55 28.617h-.868l-1.946-2.965v2.965h-.866v-4.361h.866l1.946 2.983v-2.983h.868v4.361zM22.502 27.573a1.877 1.877 0 0 1-.785.769 2.546 2.546 0 0 1-1.22.275h-1.545v-4.361h1.545c.422-.011.841.081 1.22.268.332.168.606.433.785.761a2.541 2.541 0 0 1 0 2.288zm-.993-.104a1.601 1.601 0 0 0 0-2.082 1.506 1.506 0 0 0-1.086-.371h-.603v2.823h.603a1.5 1.5 0 0 0 1.086-.371zM12.111 0s11.201 4.246 10.963 10.39v10.392S11.881 16.534 12.115 10.39L12.111 0zM33.054 18.349a15.301 15.301 0 0 1 7.117-2.633v-3.253a14.62 14.62 0 0 0-7.117 5.886z"/><path d="M31.783 19.329a15.237 15.237 0 0 1 8.388-7.548V2.407S24.219 8.455 24.557 17.204v14.795s.711-.27 1.829-.778c0-.473 0-.95.051-1.43a15.387 15.387 0 0 1 5.347-10.464z"/><path d="M30.266 24.825a15.35 15.35 0 0 1 .558-3.029 14.323 14.323 0 0 0-3.377 8.937 46.367 46.367 0 0 0 3.068-1.623 15.355 15.355 0 0 1-.248-4.284zM30.9 24.878a14.705 14.705 0 0 0 .197 3.879c4.358-2.618 9.255-6.664 9.067-11.553v-.426a14.276 14.276 0 0 0-8.292 3.89 14.648 14.648 0 0 0-.972 4.21z"/></symbol><symbol id="icon-logo6" viewBox="0 0 62 32"><path d="M31.302 15.148a2.283 2.283 0 0 1-.399-1.439v-2.087c0-.64.132-1.126.397-1.458s.719-.498 1.363-.497c.605 0 1.035.141 1.289.425.277.361.412.803.381 1.248v.49H33.25v-.497a2.821 2.821 0 0 0-.031-.486.483.483 0 0 0-.155-.289.586.586 0 0 0-.392-.113.619.619 0 0 0-.413.119.567.567 0 0 0-.179.318c-.031.17-.045.343-.043.516v2.532c-.017.244.031.489.139.711.054.075.129.135.216.172s.184.051.279.04a.546.546 0 0 0 .383-.115.521.521 0 0 0 .161-.308c.025-.168.037-.338.034-.507v-.514h1.083v.469c.03.464-.101.925-.374 1.312-.249.31-.673.465-1.296.465s-1.094-.166-1.361-.509zM35.811 15.169c-.274-.325-.41-.798-.41-1.424V11.55c0-.62.137-1.089.41-1.407s.731-.477 1.372-.475c.637 0 1.092.158 1.366.475.274.318.413.788.413 1.407v2.195c0 .62-.139 1.095-.417 1.422s-.731.49-1.361.49-1.096-.166-1.372-.488zm1.877-.526c.098-.203.143-.426.13-.65v-2.687a1.28 1.28 0 0 0-.128-.637c-.055-.077-.132-.137-.221-.175s-.189-.05-.286-.037a.549.549 0 0 0-.509.213 1.26 1.26 0 0 0-.13.637v2.7c-.014.223.031.447.13.65a.684.684 0 0 0 .506.218.695.695 0 0 0 .506-.218v-.013zM40.264 9.731h1.166l.877 4.05.897-4.05h1.135l.114 5.846h-.839l-.09-4.063-.866 4.063h-.673l-.897-4.077-.083 4.077h-.848l.105-5.846zM45.76 9.731h1.816c1.046 0 1.57.553 1.57 1.66 0 1.06-.551 1.589-1.653 1.588h-.619v2.598h-1.121l.007-5.846zm1.552 2.498c.111.013.223.004.33-.028s.204-.085.287-.156c.129-.197.185-.429.161-.66a1.98 1.98 0 0 0-.054-.531c-.016-.058-.044-.113-.083-.16s-.087-.088-.142-.118a1.06 1.06 0 0 0-.5-.093h-.435v1.747h.435zM50.762 9.731h1.204l1.235 5.846h-1.045l-.244-1.348h-1.074l-.251 1.348h-1.061l1.235-5.846zm1.03 3.821l-.419-2.454-.419 2.454h.839zM54.2 9.731h.785l1.502 3.335V9.731h.931v5.846h-.747l-1.511-3.481v3.481h-.962l.002-5.846zM59.597 13.348l-1.249-3.609H59.4l.762 2.318.715-2.318h1.029l-1.233 3.609v2.229h-1.076v-2.229zM33.033 18.132v.306h-.915v2.375h-.383v-2.375h-.919v-.306h2.218zM35.901 20.814h-.296a.122.122 0 0 1-.083-.025.135.135 0 0 1-.049-.062l-.265-.637h-1.269l-.265.637a.183.183 0 0 1-.04.072.122.122 0 0 1-.083.025h-.296l1.121-2.681h.39l1.135 2.67zm-1.857-.996h1.058l-.448-1.091a2.022 2.022 0 0 1-.083-.253c-.016.051-.029.1-.043.142l-.04.113-.444 1.089zM37.834 20.55c.07.003.141.003.211 0 .061-.006.121-.017.179-.032a1.248 1.248 0 0 0 .311-.115V19.8h-.448c-.011.001-.022-.001-.033-.005s-.02-.009-.028-.017c-.007-.006-.013-.014-.017-.022s-.006-.018-.005-.027v-.206h.87v1.027a1.594 1.594 0 0 1-.473.218 1.777 1.777 0 0 1-.28.055 3.255 3.255 0 0 1-.327.017 1.555 1.555 0 0 1-.565-.1 1.35 1.35 0 0 1-.448-.28 1.288 1.288 0 0 1-.289-.425 1.436 1.436 0 0 1-.103-.556 1.513 1.513 0 0 1 .101-.56 1.25 1.25 0 0 1 .737-.703c.192-.068.396-.102.601-.1.104 0 .209.008.312.023a1.432 1.432 0 0 1 .491.174c.069.042.134.089.195.14l-.108.166a.098.098 0 0 1-.087.051.143.143 0 0 1-.07-.021 1.264 1.264 0 0 1-.11-.064 1.034 1.034 0 0 0-.15-.072 1.345 1.345 0 0 0-.206-.059 1.596 1.596 0 0 0-.285-.023 1.225 1.225 0 0 0-.433.074.94.94 0 0 0-.33.212.947.947 0 0 0-.209.333c-.1.29-.1.603 0 .894a.961.961 0 0 0 .224.337.951.951 0 0 0 .327.212c.143.046.294.064.444.053zM41.408 20.508h1.224v.306h-1.599v-2.681h.383l-.009 2.375zM43.906 20.813h-.383v-2.681h.383v2.681zM45.332 18.145a.173.173 0 0 1 .058.049l1.639 2.021a.769.769 0 0 1 0-.096v-1.998h.334v2.692h-.193a.168.168 0 0 1-.083-.015.23.23 0 0 1-.061-.051l-1.637-2.019v2.085h-.321v-2.681h.2c.022 0 .043.004.063.013zM50.186 18.132v.295h-1.359v.885h1.101v.284h-1.101v.915h1.359v.295h-1.753v-2.675h1.753zM10.007 1.575l17.026 4.577v16.037l-17.026-4.574V1.576zM8.915.208v18.185l19.207 5.165V5.375L8.915.208z"/><path d="M19.209 32l-19.21-5.169V8.648l19.21 5.167V32zM9.233 1.37l16.804 4.519-7.146 6.767L2.085 8.135 9.233 1.37zM8.915.208L0 8.648l19.21 5.167 8.913-8.44L8.916.208zM20.29 30.977l7.832-7.417-7.832-2.108v9.524z"/></symbol><symbol id="icon-send" viewBox="0 0 32 32"><path fill="var(--color5, #fff)" d="M32 0L0 18l10.227 3.788L26 7 14.002 23.186l.01.004-.012-.004V32l5.735-6.691L27 28l5-28z"/></symbol><symbol id="icon-close" viewBox="0 0 32 32"><path d="M32 3.223L28.777 0 16 12.777 3.223 0 0 3.223 12.777 16 0 28.777 3.223 32 16 19.223 28.777 32 32 28.777 19.223 16 32 3.223z"/></symbol><symbol id="icon-person" viewBox="0 0 32 32"><path d="M16 16c4.42 0 8-3.58 8-8s-3.58-8-8-8-8 3.58-8 8 3.58 8 8 8zm0 4c-5.34 0-16 2.68-16 8v2c0 1.1.9 2 2 2h28c1.1 0 2-.9 2-2v-2c0-5.32-10.66-8-16-8z"/></symbol><symbol id="icon-phone" viewBox="0 0 32 32"><path d="M28.865 21.822l-4.525-.517a3.545 3.545 0 0 0-2.922 1.015l-3.278 3.278A26.8 26.8 0 0 1 6.401 13.859l3.296-3.296a3.545 3.545 0 0 0 1.015-2.921l-.517-4.489A3.566 3.566 0 0 0 6.65 0H3.568C1.555 0-.119 1.675.005 3.687.949 18.9 13.116 31.049 28.311 31.993c2.013.125 3.687-1.55 3.687-3.563v-3.082c.018-1.799-1.336-3.314-3.135-3.527z"/></symbol><symbol id="icon-mail" viewBox="0 0 43 32"><path d="M37.333 0h-32c-2.2 0-3.98 1.8-3.98 4l-.02 24c0 2.2 1.8 4 4 4h32c2.2 0 4-1.8 4-4V4c0-2.2-1.8-4-4-4zm-.8 8.5l-14.14 8.84c-.64.4-1.48.4-2.12 0L6.133 8.5c-.5-.32-.8-.86-.8-1.44 0-1.34 1.46-2.14 2.6-1.44l13.4 8.38 13.4-8.38c1.14-.7 2.6.1 2.6 1.44 0 .58-.3 1.12-.8 1.44z"/></symbol></defs></svg>